<mxfile host="app.diagrams.net" modified="2021-03-14T19:00:40.311Z" agent="5.0 (Macintosh; Intel Mac OS X 10_15_7) AppleWebKit/605.1.15 (KHTML, like Gecko) Version/14.0.1 Safari/605.1.15" etag="cJhOXglcCuS2LTAYhdMz" version="14.4.8" type="github">
  <diagram id="HXmYEIGGQJpF6yfqjPgy" name="Page-1">
    <mxGraphModel dx="466" dy="383" grid="1" gridSize="10" guides="1" tooltips="1" connect="1" arrows="1" fold="1" page="1" pageScale="1" pageWidth="827" pageHeight="1169" math="0" shadow="0">
      <root>
        <mxCell id="0" />
        <mxCell id="1" parent="0" />
        <mxCell id="J6Zqqp0tfZkEr3R6UFkn-1" value="helloworld" style="rounded=0;whiteSpace=wrap;html=1;" vertex="1" parent="1">
          <mxGeometry x="180" y="290" width="120" height="60" as="geometry" />
        </mxCell>
      </root>
    </mxGraphModel>
  </diagram>
</mxfile>
